<?xml version="1.0" standalone="no"?>
<!DOCTYPE svg PUBLIC "-//W3C//DTD SVG 20010904//EN"
 "http://www.w3.org/TR/2001/REC-SVG-20010904/DTD/svg10.dtd">
<svg version="1.0" xmlns="http://www.w3.org/2000/svg"
 width="225.000000pt" height="225.000000pt" viewBox="0 0 225.000000 225.000000"
 preserveAspectRatio="xMidYMid meet">
<metadata>
Created by potrace 1.14, written by Peter Selinger 2001-2017
</metadata>
<g transform="translate(0.000000,225.000000) scale(0.100000,-0.100000)"
fill="#000000" stroke="none">
<path d="M980 2239 c-161 -17 -383 -105 -515 -204 -229 -172 -383 -410 -440
-681 -22 -102 -23 -348 -2 -454 77 -385 368 -713 743 -839 129 -44 246 -60
394 -56 351 10 658 171 875 460 88 116 176 326 200 475 13 80 13 276 0 357
-76 471 -437 845 -903 932 -80 15 -255 20 -352 10z m287 -74 c18 -3 49 -8 69
-11 61 -9 185 -53 259 -91 312 -159 533 -470 573 -809 51 -441 -177 -866 -573
-1067 -149 -75 -300 -110 -480 -109 -215 0 -403 59 -590 185 -132 89 -284 269
-351 416 -31 67 -70 184 -78 231 -52 314 4 581 172 820 60 85 181 206 261 259
136 92 320 162 465 177 33 4 62 7 64 9 4 4 174 -4 209 -10z"/>
<path d="M1024 1864 c-44 -6 -103 -19 -132 -28 -42 -14 -52 -22 -52 -40 0 -42
16 -45 103 -22 96 26 222 33 303 16 48 -10 59 -10 71 3 20 20 8 53 -21 61 -85
21 -173 25 -272 10z"/>
<path d="M656 1677 c-15 -11 -17 -32 -17 -197 l0 -184 56 -56 56 -57 -6 -119
c-28 -484 -29 -547 -11 -582 22 -43 59 -65 110 -65 51 0 89 23 111 69 16 35
16 56 0 344 -2 41 -7 138 -10 215 l-6 140 55 57 56 56 0 186 c0 178 -1 186
-21 197 -17 9 -25 8 -37 -5 -14 -14 -17 -43 -17 -180 l0 -164 -57 -60 c-55
-57 -57 -62 -53 -103 2 -24 7 -114 10 -199 3 -85 8 -177 10 -205 11 -136 9
-243 -4 -259 -17 -21 -55 -21 -76 0 -13 14 -15 32 -10 118 4 55 8 139 10 186
2 47 7 141 11 210 12 204 14 191 -50 253 l-56 54 0 169 c0 190 -7 215 -54 181z"/>
<path d="M766 1674 c-13 -13 -16 -44 -16 -179 0 -159 1 -165 22 -176 18 -10
24 -8 38 8 13 16 16 47 15 175 -1 114 -4 160 -14 172 -17 20 -25 20 -45 0z"/>
<path d="M880 1680 c-22 -14 -25 -333 -3 -355 18 -19 28 -19 46 -1 21 22 19
343 -3 356 -19 12 -21 12 -40 0z"/>
<path d="M1364 1680 c-71 -16 -109 -65 -143 -189 -24 -88 -23 -199 4 -254 9
-21 33 -50 52 -66 33 -27 34 -30 29 -82 -3 -30 -8 -124 -11 -209 -3 -85 -8
-195 -11 -245 -7 -125 1 -160 41 -191 59 -45 134 -37 181 19 l27 32 -8 195
c-4 107 -9 218 -10 245 -12 216 -12 210 23 240 47 40 63 78 69 164 6 84 -21
207 -58 268 -37 59 -112 89 -185 73z m118 -104 c21 -27 48 -125 54 -200 6 -73
-21 -135 -72 -165 l-34 -20 5 -113 c2 -62 7 -169 10 -238 15 -315 15 -319 -1
-335 -20 -19 -58 -19 -74 1 -15 17 -16 55 -7 248 4 76 10 207 13 290 l7 152
-36 18 c-51 28 -69 66 -70 145 0 69 24 169 50 209 34 53 114 57 155 8z"/>
<path d="M1640 1600 c-9 -17 -5 -29 23 -68 141 -192 174 -437 90 -652 -28 -72
-97 -182 -137 -219 -30 -28 -32 -43 -11 -65 23 -23 52 -5 108 66 184 234 211
568 66 827 -68 120 -114 157 -139 111z"/>
<path d="M510 1553 c-38 -48 -98 -185 -115 -263 -53 -235 21 -509 180 -672 36
-36 59 -40 77 -14 12 17 11 19 -46 90 -59 74 -105 161 -133 252 -13 44 -18 90
-17 184 0 110 3 135 28 204 15 44 45 109 66 145 30 50 37 69 29 83 -14 26 -44
22 -69 -9z"/>
<path d="M1026 444 c-22 -11 -23 -43 -3 -56 15 -9 58 -12 162 -9 34 1 47 6 56
22 20 38 -7 52 -107 53 -48 0 -97 -4 -108 -10z"/>
</g>
</svg>
